<svg viewBox="0 0 19 16" fill="white" xmlns="http://www.w3.org/2000/svg">
<path d="M17.7976 9.1384C18.0785 8.85715 18.2363 8.4759 18.2363 8.0784C18.2363 7.6809 18.0785 7.29965 17.7976 7.0184L12.1416 1.3594C11.8603 1.07801 11.4786 0.919922 11.0806 0.919922C10.6827 0.919922 10.301 1.07801 10.0196 1.3594C9.73825 1.6408 9.58017 2.02245 9.58017 2.4204C9.58017 2.81835 9.73825 3.20001 10.0196 3.4814L13.1156 6.5784L1.58065 6.5784C1.18282 6.5784 0.801293 6.73644 0.519989 7.01774C0.238684 7.29905 0.0806481 7.68058 0.0806481 8.0784C0.0806481 8.47623 0.238684 8.85776 0.519989 9.13906C0.801293 9.42037 1.18282 9.5784 1.58065 9.5784L13.1156 9.5784L10.0196 12.6744C9.88031 12.8137 9.76979 12.9791 9.69438 13.1612C9.61898 13.3432 9.58017 13.5384 9.58017 13.7354C9.58017 13.9324 9.61898 14.1276 9.69438 14.3096C9.76979 14.4917 9.88031 14.6571 10.0196 14.7964C10.159 14.9357 10.3244 15.0463 10.5064 15.1217C10.6885 15.1971 10.8836 15.2359 11.0806 15.2359C11.2777 15.2359 11.4728 15.1971 11.6549 15.1217C11.8369 15.0463 12.0023 14.9357 12.1416 14.7964L17.7976 9.1384Z" />
</svg>
