<svg viewBox="0 0 24 24" fill="white" xmlns="http://www.w3.org/2000/svg">
<path d="M12.0003 2.5C12.186 2.5001 12.3679 2.55188 12.5258 2.64955C12.6837 2.74722 12.8113 2.88692 12.8943 3.053L15.4743 8.211L21.1443 9.035C21.329 9.06182 21.5025 9.1398 21.6452 9.2601C21.7879 9.38041 21.894 9.53825 21.9517 9.71576C22.0093 9.89327 22.0161 10.0834 21.9714 10.2646C21.9266 10.4457 21.832 10.6108 21.6983 10.741L17.5713 14.765L18.4993 20.439C18.5291 20.6227 18.5071 20.811 18.4357 20.9829C18.3643 21.1547 18.2464 21.3032 18.0952 21.4117C17.944 21.5202 17.7655 21.5843 17.5799 21.5969C17.3942 21.6095 17.2087 21.5701 17.0443 21.483L12.0003 18.807L6.95629 21.483C6.79184 21.5701 6.60635 21.6095 6.42069 21.5969C6.23504 21.5843 6.05658 21.5202 5.90539 21.4117C5.7542 21.3032 5.63628 21.1547 5.56489 20.9829C5.4935 20.811 5.47147 20.6227 5.50129 20.439L6.42929 14.765L2.30229 10.741C2.16859 10.6108 2.07399 10.4457 2.02921 10.2646C1.98443 10.0834 1.99125 9.89327 2.04889 9.71576C2.10654 9.53825 2.21271 9.38041 2.3554 9.2601C2.49808 9.1398 2.67159 9.06182 2.85629 9.035L8.52629 8.211L11.1063 3.053C11.1893 2.88692 11.3169 2.74722 11.4748 2.64955C11.6327 2.55188 11.8146 2.5001 12.0003 2.5Z" fill="transparent"/>
<path d="M12.0003 2.5C12.186 2.5001 12.3679 2.55188 12.5258 2.64955C12.6837 2.74722 12.8113 2.88692 12.8943 3.053L15.4743 8.211L21.1443 9.035C21.329 9.06182 21.5025 9.1398 21.6452 9.2601C21.7879 9.38041 21.894 9.53825 21.9517 9.71576C22.0093 9.89327 22.0161 10.0834 21.9714 10.2646C21.9266 10.4457 21.832 10.6108 21.6983 10.741L17.5713 14.765L18.4993 20.439C18.5291 20.6227 18.5071 20.811 18.4357 20.9829C18.3643 21.1547 18.2464 21.3032 18.0952 21.4117C17.944 21.5202 17.7655 21.5843 17.5799 21.5969C17.3942 21.6095 17.2087 21.5701 17.0443 21.483L12.0003 18.807L6.95629 21.483C6.79184 21.5701 6.60635 21.6095 6.42069 21.5969C6.23504 21.5843 6.05658 21.5202 5.90539 21.4117C5.7542 21.3032 5.63628 21.1547 5.56489 20.9829C5.4935 20.811 5.47147 20.6227 5.50129 20.439L6.42929 14.765L2.30229 10.741C2.16859 10.6108 2.07399 10.4457 2.02921 10.2646C1.98443 10.0834 1.99125 9.89327 2.04889 9.71576C2.10654 9.53825 2.21271 9.38041 2.3554 9.2601C2.49808 9.1398 2.67159 9.06182 2.85629 9.035L8.52629 8.211L11.1063 3.053C11.1893 2.88692 11.3169 2.74722 11.4748 2.64955C11.6327 2.55188 11.8146 2.5001 12.0003 2.5ZM12.0003 5.736L10.0823 9.572C10.0103 9.71626 9.90451 9.84099 9.77392 9.93553C9.64333 10.0301 9.49182 10.0917 9.33229 10.115L5.14829 10.723L8.19829 13.696C8.31355 13.8083 8.40001 13.9468 8.45032 14.0996C8.50064 14.2525 8.51332 14.4152 8.48729 14.574L7.80029 18.771L11.5313 16.791C11.6757 16.7143 11.8368 16.6742 12.0003 16.6742C12.1638 16.6742 12.3249 16.7143 12.4693 16.791L16.2003 18.771L15.5133 14.574C15.4874 14.4154 15.5002 14.2528 15.5505 14.1001C15.6008 13.9475 15.6872 13.8092 15.8023 13.697L18.8523 10.723L14.6693 10.115C14.5098 10.0917 14.3582 10.0301 14.2277 9.93553C14.0971 9.84099 13.9913 9.71626 13.9193 9.572L12.0003 5.736Z"/>
</svg>
