<svg viewBox="0 0 24 24" fill="white" xmlns="http://www.w3.org/2000/svg">
<path d="M7.5 5.25C6.90326 5.25 6.33097 5.48705 5.90901 5.90901C5.48705 6.33097 5.25 6.90326 5.25 7.5V16.5C5.25 17.0967 5.48705 17.669 5.90901 18.091C6.33097 18.5129 6.90326 18.75 7.5 18.75H16.5C17.0967 18.75 17.669 18.5129 18.091 18.091C18.5129 17.669 18.75 17.0967 18.75 16.5V14.25C18.75 13.9516 18.8685 13.6655 19.0795 13.4545C19.2905 13.2435 19.5766 13.125 19.875 13.125C20.1734 13.125 20.4595 13.2435 20.6705 13.4545C20.8815 13.6655 21 13.9516 21 14.25V16.5C21 17.6935 20.5259 18.8381 19.682 19.682C18.8381 20.5259 17.6935 21 16.5 21H7.5C6.30653 21 5.16193 20.5259 4.31802 19.682C3.47411 18.8381 3 17.6935 3 16.5V7.5C3 6.30653 3.47411 5.16193 4.31802 4.31802C5.16193 3.47411 6.30653 3 7.5 3H9.75C10.0484 3 10.3345 3.11853 10.5455 3.32951C10.7565 3.54048 10.875 3.82663 10.875 4.125C10.875 4.42337 10.7565 4.70952 10.5455 4.92049C10.3345 5.13147 10.0484 5.25 9.75 5.25H7.5ZM14.25 5.25C13.9516 5.25 13.6655 5.13147 13.4545 4.92049C13.2435 4.70952 13.125 4.42337 13.125 4.125C13.125 3.82663 13.2435 3.54048 13.4545 3.32951C13.6655 3.11853 13.9516 3 14.25 3H19.875C20.1734 3 20.4595 3.11853 20.6705 3.32951C20.8815 3.54048 21 3.82663 21 4.125V9.75C21 10.0484 20.8815 10.3345 20.6705 10.5455C20.4595 10.7565 20.1734 10.875 19.875 10.875C19.5766 10.875 19.2905 10.7565 19.0795 10.5455C18.8685 10.3345 18.75 10.0484 18.75 9.75V6.84075L15.0465 10.5465C14.9419 10.6511 14.8177 10.7341 14.6811 10.7907C14.5444 10.8473 14.3979 10.8764 14.25 10.8764C14.1021 10.8764 13.9556 10.8473 13.8189 10.7907C13.6823 10.7341 13.5581 10.6511 13.4535 10.5465C13.3489 10.4419 13.2659 10.3177 13.2093 10.1811C13.1527 10.0444 13.1236 9.89792 13.1236 9.75C13.1236 9.60208 13.1527 9.4556 13.2093 9.31894C13.2659 9.18227 13.3489 9.0581 13.4535 8.9535L17.1593 5.25H14.25Z"/>
</svg>
