<svg width="24" height="24" viewBox="0 0 24 24" fill="white" xmlns="http://www.w3.org/2000/svg">
<path d="M19.0266 8.66683H4.97331C4.7965 8.66683 4.62693 8.59659 4.5019 8.47157C4.37688 8.34654 4.30664 8.17697 4.30664 8.00016C4.30664 7.82335 4.37688 7.65378 4.5019 7.52876C4.62693 7.40373 4.7965 7.3335 4.97331 7.3335H19.0266C19.2035 7.3335 19.373 7.40373 19.498 7.52876C19.6231 7.65378 19.6933 7.82335 19.6933 8.00016C19.6933 8.17697 19.6231 8.34654 19.498 8.47157C19.373 8.59659 19.2035 8.66683 19.0266 8.66683Z"/>
<path d="M14.1133 12.6668H4.97331C4.7965 12.6668 4.62693 12.5966 4.5019 12.4716C4.37688 12.3465 4.30664 12.177 4.30664 12.0002C4.30664 11.8234 4.37688 11.6538 4.5019 11.5288C4.62693 11.4037 4.7965 11.3335 4.97331 11.3335H14.1133C14.2901 11.3335 14.4597 11.4037 14.5847 11.5288C14.7097 11.6538 14.78 11.8234 14.78 12.0002C14.78 12.177 14.7097 12.3465 14.5847 12.4716C14.4597 12.5966 14.2901 12.6668 14.1133 12.6668Z"/>
<path d="M9.15997 16.6668H4.97331C4.7965 16.6668 4.62693 16.5966 4.5019 16.4716C4.37688 16.3465 4.30664 16.177 4.30664 16.0002C4.30664 15.8234 4.37688 15.6538 4.5019 15.5288C4.62693 15.4037 4.7965 15.3335 4.97331 15.3335H9.15997C9.33678 15.3335 9.50635 15.4037 9.63138 15.5288C9.7564 15.6538 9.82664 15.8234 9.82664 16.0002C9.82664 16.177 9.7564 16.3465 9.63138 16.4716C9.50635 16.5966 9.33678 16.6668 9.15997 16.6668Z"/>
</svg>
