<svg viewBox="0 0 9 10" fill="white" xmlns="http://www.w3.org/2000/svg">
<path d="M0.875 9.0625C0.875 9.31114 0.973772 9.5496 1.14959 9.72542C1.3254 9.90123 1.56386 10 1.8125 10H7.4375C7.68614 10 7.9246 9.90123 8.10041 9.72542C8.27623 9.5496 8.375 9.31114 8.375 9.0625V2.5H0.875V9.0625ZM6.1875 4.0625C6.1875 3.97962 6.22042 3.90014 6.27903 3.84153C6.33763 3.78293 6.41712 3.75 6.5 3.75C6.58288 3.75 6.66237 3.78293 6.72097 3.84153C6.77958 3.90014 6.8125 3.97962 6.8125 4.0625V8.4375C6.8125 8.52038 6.77958 8.59987 6.72097 8.65847C6.66237 8.71708 6.58288 8.75 6.5 8.75C6.41712 8.75 6.33763 8.71708 6.27903 8.65847C6.22042 8.59987 6.1875 8.52038 6.1875 8.4375V4.0625ZM4.3125 4.0625C4.3125 3.97962 4.34542 3.90014 4.40403 3.84153C4.46263 3.78293 4.54212 3.75 4.625 3.75C4.70788 3.75 4.78737 3.78293 4.84597 3.84153C4.90458 3.90014 4.9375 3.97962 4.9375 4.0625V8.4375C4.9375 8.52038 4.90458 8.59987 4.84597 8.65847C4.78737 8.71708 4.70788 8.75 4.625 8.75C4.54212 8.75 4.46263 8.71708 4.40403 8.65847C4.34542 8.59987 4.3125 8.52038 4.3125 8.4375V4.0625ZM2.4375 4.0625C2.4375 3.97962 2.47042 3.90014 2.52903 3.84153C2.58763 3.78293 2.66712 3.75 2.75 3.75C2.83288 3.75 2.91237 3.78293 2.97097 3.84153C3.02958 3.90014 3.0625 3.97962 3.0625 4.0625V8.4375C3.0625 8.52038 3.02958 8.59987 2.97097 8.65847C2.91237 8.71708 2.83288 8.75 2.75 8.75C2.66712 8.75 2.58763 8.71708 2.52903 8.65847C2.47042 8.59987 2.4375 8.52038 2.4375 8.4375V4.0625ZM8.6875 0.625003H6.34375L6.16016 0.259769C6.12127 0.181686 6.06136 0.116004 5.98717 0.0701125C5.91299 0.024221 5.82747 -5.91399e-05 5.74023 3.42436e-06H3.50781C3.42078 -0.000331156 3.33541 0.0238585 3.26149 0.069801C3.18756 0.115743 3.12808 0.18158 3.08984 0.259769L2.90625 0.625003H0.5625C0.47962 0.625003 0.400134 0.657927 0.341529 0.716532C0.282924 0.775138 0.25 0.854623 0.25 0.937503L0.25 1.5625C0.25 1.64538 0.282924 1.72487 0.341529 1.78347C0.400134 1.84208 0.47962 1.875 0.5625 1.875H8.6875C8.77038 1.875 8.84987 1.84208 8.90847 1.78347C8.96708 1.72487 9 1.64538 9 1.5625V0.937503C9 0.854623 8.96708 0.775138 8.90847 0.716532C8.84987 0.657927 8.77038 0.625003 8.6875 0.625003Z" />
</svg>
